<svg width="54" height="52" viewBox="0 0 54 52" fill="none" xmlns="http://www.w3.org/2000/svg">
<path d="M11.8125 24.375H45.5625C46.0101 24.375 46.4393 24.5462 46.7557 24.851C47.0722 25.1557 47.25 25.569 47.25 26C47.25 26.431 47.0722 26.8443 46.7557 27.149C46.4393 27.4538 46.0101 27.625 45.5625 27.625H11.8125C11.3649 27.625 10.9357 27.4538 10.6193 27.149C10.3028 26.8443 10.125 26.431 10.125 26C10.125 25.569 10.3028 25.1557 10.6193 24.851C10.9357 24.5462 11.3649 24.375 11.8125 24.375Z" fill="#00A868"/>
<path d="M12.5112 26L26.5073 39.4745C26.8242 39.7796 27.0022 40.1935 27.0022 40.625C27.0022 41.0565 26.8242 41.4704 26.5073 41.7755C26.1905 42.0806 25.7607 42.252 25.3126 42.252C24.8645 42.252 24.4347 42.0806 24.1178 41.7755L8.93034 27.1505C8.77319 26.9995 8.6485 26.8202 8.56343 26.6228C8.47836 26.4254 8.43457 26.2137 8.43457 26C8.43457 25.7862 8.47836 25.5746 8.56343 25.3772C8.6485 25.1798 8.77319 25.0004 8.93034 24.8495L24.1178 10.2245C24.4347 9.91936 24.8645 9.74794 25.3126 9.74794C25.7607 9.74794 26.1905 9.91936 26.5073 10.2245C26.8242 10.5296 27.0022 10.9435 27.0022 11.375C27.0022 11.8065 26.8242 12.2204 26.5073 12.5255L12.5112 26Z" fill="#00A868"/>
</svg>
