<svg width="234" height="59" viewBox="0 0 234 59" fill="none" xmlns="http://www.w3.org/2000/svg">
<path d="M156.36 47V13.4H172.248C175.96 13.4 179.224 14.088 182.04 15.464C184.856 16.84 187.048 18.776 188.616 21.272C190.216 23.768 191.016 26.744 191.016 30.2C191.016 33.624 190.216 36.6 188.616 39.128C187.048 41.624 184.856 43.56 182.04 44.936C179.224 46.312 175.96 47 172.248 47H156.36ZM165.864 39.416H171.864C173.784 39.416 175.448 39.064 176.856 38.36C178.296 37.624 179.416 36.568 180.216 35.192C181.016 33.784 181.416 32.12 181.416 30.2C181.416 28.248 181.016 26.584 180.216 25.208C179.416 23.832 178.296 22.792 176.856 22.088C175.448 21.352 173.784 20.984 171.864 20.984H165.864V39.416ZM212.96 47.672C210.272 47.672 207.792 47.24 205.52 46.376C203.248 45.512 201.264 44.296 199.568 42.728C197.904 41.128 196.608 39.272 195.68 37.16C194.752 35.048 194.288 32.728 194.288 30.2C194.288 27.672 194.752 25.352 195.68 23.24C196.608 21.128 197.904 19.288 199.568 17.72C201.264 16.12 203.248 14.888 205.52 14.024C207.792 13.16 210.272 12.728 212.96 12.728C215.68 12.728 218.16 13.16 220.4 14.024C222.672 14.888 224.64 16.12 226.304 17.72C227.968 19.288 229.264 21.128 230.192 23.24C231.152 25.352 231.632 27.672 231.632 30.2C231.632 32.728 231.152 35.064 230.192 37.208C229.264 39.32 227.968 41.16 226.304 42.728C224.64 44.296 222.672 45.512 220.4 46.376C218.16 47.24 215.68 47.672 212.96 47.672ZM212.96 39.8C214.24 39.8 215.424 39.576 216.512 39.128C217.632 38.68 218.592 38.04 219.392 37.208C220.224 36.344 220.864 35.32 221.312 34.136C221.792 32.952 222.032 31.64 222.032 30.2C222.032 28.728 221.792 27.416 221.312 26.264C220.864 25.08 220.224 24.072 219.392 23.24C218.592 22.376 217.632 21.72 216.512 21.272C215.424 20.824 214.24 20.6 212.96 20.6C211.68 20.6 210.48 20.824 209.36 21.272C208.272 21.72 207.312 22.376 206.48 23.24C205.68 24.072 205.04 25.08 204.56 26.264C204.112 27.416 203.888 28.728 203.888 30.2C203.888 31.64 204.112 32.952 204.56 34.136C205.04 35.32 205.68 36.344 206.48 37.208C207.312 38.04 208.272 38.68 209.36 39.128C210.48 39.576 211.68 39.8 212.96 39.8Z" fill="white"/>
<path d="M10.512 47V20.936H0.192V13.4H30.288V20.936H20.016V47H10.512ZM50.304 47.672C47.616 47.672 45.136 47.24 42.864 46.376C40.592 45.512 38.608 44.296 36.912 42.728C35.248 41.128 33.952 39.272 33.024 37.16C32.096 35.048 31.632 32.728 31.632 30.2C31.632 27.672 32.096 25.352 33.024 23.24C33.952 21.128 35.248 19.288 36.912 17.72C38.608 16.12 40.592 14.888 42.864 14.024C45.136 13.16 47.616 12.728 50.304 12.728C53.024 12.728 55.504 13.16 57.744 14.024C60.016 14.888 61.984 16.12 63.648 17.72C65.312 19.288 66.608 21.128 67.536 23.24C68.496 25.352 68.976 27.672 68.976 30.2C68.976 32.728 68.496 35.064 67.536 37.208C66.608 39.32 65.312 41.16 63.648 42.728C61.984 44.296 60.016 45.512 57.744 46.376C55.504 47.24 53.024 47.672 50.304 47.672ZM50.304 39.8C51.584 39.8 52.768 39.576 53.856 39.128C54.976 38.68 55.936 38.04 56.736 37.208C57.568 36.344 58.208 35.32 58.656 34.136C59.136 32.952 59.376 31.64 59.376 30.2C59.376 28.728 59.136 27.416 58.656 26.264C58.208 25.08 57.568 24.072 56.736 23.24C55.936 22.376 54.976 21.72 53.856 21.272C52.768 20.824 51.584 20.6 50.304 20.6C49.024 20.6 47.824 20.824 46.704 21.272C45.616 21.72 44.656 22.376 43.824 23.24C43.024 24.072 42.384 25.08 41.904 26.264C41.456 27.416 41.232 28.728 41.232 30.2C41.232 31.64 41.456 32.952 41.904 34.136C42.384 35.32 43.024 36.344 43.824 37.208C44.656 38.04 45.616 38.68 46.704 39.128C47.824 39.576 49.024 39.8 50.304 39.8Z" fill="white"/>
<rect x="74" y="7" width="76" height="9" fill="#080341"/>
<rect x="74" y="29" width="76" height="8" fill="#080341"/>
<rect x="74" y="50" width="76" height="9" fill="#080341"/>
</svg>
