<svg width="30" height="30" viewBox="0 0 30 30" fill="none" xmlns="http://www.w3.org/2000/svg">
<path d="M20.261 9.92843C20.2234 13.1298 17.6519 15.7013 14.4505 15.7389C11.2486 15.7765 8.67713 13.0734 8.64021 9.92843C8.61651 7.90935 5.48324 7.907 5.50697 9.92843C5.56463 14.8383 9.54059 18.8145 14.4505 18.8721C19.3609 18.9298 23.3375 14.7516 23.3942 9.92843C23.418 7.907 20.2848 7.90935 20.261 9.92843Z" fill="#00A868"/>
<path d="M8.64018 9.52613C8.67777 6.3248 11.2491 3.75327 14.4505 3.71568C17.6524 3.67809 20.224 6.38119 20.2609 9.52613C20.2847 11.5452 23.4179 11.5476 23.3942 9.52613C23.3366 4.61623 19.3605 0.639915 14.4505 0.582435C9.54021 0.524925 5.56354 4.70304 5.50697 9.52613C5.48321 11.5476 8.61651 11.5452 8.64018 9.52613Z" fill="#00A868"/>
<path d="M6.51347 28.1248C6.53252 25.9367 7.36733 23.8904 8.88265 22.3247C10.4418 20.7135 12.5775 19.8598 14.7978 19.8405C16.9716 19.8215 19.0518 20.7132 20.598 22.2096C22.2092 23.7688 23.0627 25.9045 23.0821 28.1248C23.0997 30.1443 26.2329 30.146 26.2153 28.1248C26.1609 21.8691 21.0536 16.7616 14.7978 16.7072C8.54143 16.6529 3.43399 21.9509 3.3802 28.1248C3.36259 30.146 6.49589 30.1443 6.51347 28.1248Z" fill="#00A868"/>
</svg>
