<svg width="108" height="22" viewBox="0 0 108 22" fill="none" xmlns="http://www.w3.org/2000/svg">
<path d="M73.4 19V5H80.02C81.5667 5 82.9267 5.28667 84.1 5.86C85.2733 6.43333 86.1867 7.24 86.84 8.28C87.5067 9.32 87.84 10.56 87.84 12C87.84 13.4267 87.5067 14.6667 86.84 15.72C86.1867 16.76 85.2733 17.5667 84.1 18.14C82.9267 18.7133 81.5667 19 80.02 19H73.4ZM77.36 15.84H79.86C80.66 15.84 81.3533 15.6933 81.94 15.4C82.54 15.0933 83.0067 14.6533 83.34 14.08C83.6733 13.4933 83.84 12.8 83.84 12C83.84 11.1867 83.6733 10.4933 83.34 9.92C83.0067 9.34667 82.54 8.91333 81.94 8.62C81.3533 8.31333 80.66 8.16 79.86 8.16H77.36V15.84ZM96.9834 19.28C95.8634 19.28 94.8301 19.1 93.8834 18.74C92.9368 18.38 92.1101 17.8733 91.4034 17.22C90.7101 16.5533 90.1701 15.78 89.7834 14.9C89.3968 14.02 89.2034 13.0533 89.2034 12C89.2034 10.9467 89.3968 9.98 89.7834 9.1C90.1701 8.22 90.7101 7.45333 91.4034 6.8C92.1101 6.13333 92.9368 5.62 93.8834 5.26C94.8301 4.9 95.8634 4.72 96.9834 4.72C98.1168 4.72 99.1501 4.9 100.083 5.26C101.03 5.62 101.85 6.13333 102.543 6.8C103.237 7.45333 103.777 8.22 104.163 9.1C104.563 9.98 104.763 10.9467 104.763 12C104.763 13.0533 104.563 14.0267 104.163 14.92C103.777 15.8 103.237 16.5667 102.543 17.22C101.85 17.8733 101.03 18.38 100.083 18.74C99.1501 19.1 98.1168 19.28 96.9834 19.28ZM96.9834 16C97.5168 16 98.0101 15.9067 98.4634 15.72C98.9301 15.5333 99.3301 15.2667 99.6634 14.92C100.01 14.56 100.277 14.1333 100.463 13.64C100.663 13.1467 100.763 12.6 100.763 12C100.763 11.3867 100.663 10.84 100.463 10.36C100.277 9.86667 100.01 9.44667 99.6634 9.1C99.3301 8.74 98.9301 8.46667 98.4634 8.28C98.0101 8.09333 97.5168 8 96.9834 8C96.4501 8 95.9501 8.09333 95.4834 8.28C95.0301 8.46667 94.6301 8.74 94.2834 9.1C93.9501 9.44667 93.6834 9.86667 93.4834 10.36C93.2968 10.84 93.2034 11.3867 93.2034 12C93.2034 12.6 93.2968 13.1467 93.4834 13.64C93.6834 14.1333 93.9501 14.56 94.2834 14.92C94.6301 15.2667 95.0301 15.5333 95.4834 15.72C95.9501 15.9067 96.4501 16 96.9834 16Z" fill="#00A868"/>
<path d="M4.38 19V8.14H0.08V5H12.62V8.14H8.34V19H4.38ZM20.96 19.28C19.84 19.28 18.8067 19.1 17.86 18.74C16.9133 18.38 16.0867 17.8733 15.38 17.22C14.6867 16.5533 14.1467 15.78 13.76 14.9C13.3733 14.02 13.18 13.0533 13.18 12C13.18 10.9467 13.3733 9.98 13.76 9.1C14.1467 8.22 14.6867 7.45333 15.38 6.8C16.0867 6.13333 16.9133 5.62 17.86 5.26C18.8067 4.9 19.84 4.72 20.96 4.72C22.0933 4.72 23.1267 4.9 24.06 5.26C25.0067 5.62 25.8267 6.13333 26.52 6.8C27.2133 7.45333 27.7533 8.22 28.14 9.1C28.54 9.98 28.74 10.9467 28.74 12C28.74 13.0533 28.54 14.0267 28.14 14.92C27.7533 15.8 27.2133 16.5667 26.52 17.22C25.8267 17.8733 25.0067 18.38 24.06 18.74C23.1267 19.1 22.0933 19.28 20.96 19.28ZM20.96 16C21.4933 16 21.9867 15.9067 22.44 15.72C22.9067 15.5333 23.3067 15.2667 23.64 14.92C23.9867 14.56 24.2533 14.1333 24.44 13.64C24.64 13.1467 24.74 12.6 24.74 12C24.74 11.3867 24.64 10.84 24.44 10.36C24.2533 9.86667 23.9867 9.44667 23.64 9.1C23.3067 8.74 22.9067 8.46667 22.44 8.28C21.9867 8.09333 21.4933 8 20.96 8C20.4267 8 19.9267 8.09333 19.46 8.28C19.0067 8.46667 18.6067 8.74 18.26 9.1C17.9267 9.44667 17.66 9.86667 17.46 10.36C17.2733 10.84 17.18 11.3867 17.18 12C17.18 12.6 17.2733 13.1467 17.46 13.64C17.66 14.1333 17.9267 14.56 18.26 14.92C18.6067 15.2667 19.0067 15.5333 19.46 15.72C19.9267 15.9067 20.4267 16 20.96 16Z" fill="#00A868"/>
<rect x="33" width="36" height="4" fill="#080341"/>
<rect x="33" y="9" width="36" height="4" fill="#080341"/>
<rect x="33" y="18" width="36" height="4" fill="#080341"/>
</svg>
